<?xml version="1.0" standalone="no"?>
<!DOCTYPE svg PUBLIC "-//W3C//DTD SVG 20010904//EN"
 "http://www.w3.org/TR/2001/REC-SVG-20010904/DTD/svg10.dtd">
<svg version="1.0" xmlns="http://www.w3.org/2000/svg"
 width="200.000000pt" height="273.000000pt" viewBox="0 0 200.000000 273.000000"
 preserveAspectRatio="xMidYMid meet">

<g transform="translate(0.000000,273.000000) scale(0.100000,-0.100000)"
fill="#000000" stroke="none">
<path d="M1075 2714 c-18 -14 -18 -14 2 -14 23 0 39 15 26 23 -5 3 -17 -1 -28
-9z"/>
<path d="M926 2681 c-3 -5 3 -11 14 -14 16 -4 20 -14 20 -51 0 -25 5 -46 10
-46 6 0 10 23 10 50 0 38 4 50 15 50 8 0 15 5 15 10 0 12 -77 13 -84 1z"/>
<path d="M1036 2668 c-3 -13 -6 -39 -6 -59 0 -30 4 -38 23 -43 34 -9 67 -7 67
4 0 6 -15 10 -34 10 -30 0 -33 3 -29 21 4 16 12 20 29 16 13 -2 24 0 24 4 0 5
-11 9 -25 9 -19 0 -25 5 -25 21 0 18 4 20 30 14 19 -4 30 -3 30 4 0 6 -11 11
-24 11 -13 0 -31 3 -39 6 -9 3 -17 -3 -21 -18z"/>
<path d="M878 2628 c4 -52 16 -78 28 -66 11 11 -8 118 -21 118 -9 0 -11 -15
-7 -52z"/>
<path d="M788 2665 c-2 -3 0 -30 5 -60 10 -51 12 -55 38 -55 34 0 48 17 17 22
-19 2 -25 12 -32 51 -8 43 -15 55 -28 42z"/>
<path d="M1150 2650 c-41 -41 -13 -101 46 -99 21 1 23 3 9 6 -30 8 -45 23 -45
48 0 29 24 48 50 40 23 -7 28 10 4 19 -27 10 -43 7 -64 -14z"/>
<path d="M1247 2601 c-20 -56 -20 -61 -8 -61 5 0 12 14 16 30 4 17 10 30 13
30 4 0 15 -20 25 -45 11 -25 23 -45 27 -45 7 0 40 83 40 102 0 21 -18 5 -27
-24 l-10 -33 -23 48 c-13 26 -27 47 -30 47 -3 0 -13 -22 -23 -49z"/>
<path d="M667 2622 c-21 -23 -21 -35 -2 -72 12 -22 23 -30 43 -30 54 0 78 37
56 88 -11 27 -18 32 -47 32 -20 0 -41 -7 -50 -18z m81 -51 c-6 -48 -68 -34
-68 15 0 13 8 27 17 33 25 13 55 -15 51 -48z"/>
<path d="M558 2584 l-28 -14 27 -55 c25 -50 48 -65 41 -27 -2 10 8 27 21 38
22 19 24 25 13 48 -13 29 -34 32 -74 10z m53 -20 c11 -14 10 -18 -6 -30 -17
-13 -20 -12 -31 8 -9 17 -9 25 -1 30 17 11 23 10 38 -8z"/>
<path d="M1374 2553 c-11 -27 -20 -51 -22 -55 -2 -5 3 -8 11 -8 8 0 23 21 33
47 11 27 21 51 22 55 2 5 -3 8 -11 8 -8 0 -23 -21 -33 -47z"/>
<path d="M1444 2557 c-26 -14 -34 -27 -34 -58 0 -26 27 -59 48 -59 20 0 13 17
-8 23 -22 6 -26 28 -10 58 12 21 50 25 68 7 8 -8 12 -8 12 -1 0 25 -49 45 -76
30z"/>
<path d="M423 2500 c-18 -11 -33 -22 -33 -26 0 -8 62 -94 69 -94 14 0 61 56
61 72 0 19 -42 68 -57 68 -4 0 -23 -9 -40 -20z m63 -35 c13 -20 14 -28 4 -40
-7 -8 -16 -15 -19 -15 -13 0 -52 60 -46 70 11 18 44 10 61 -15z"/>
<path d="M1525 2458 l-50 -31 33 -9 c22 -6 36 -18 43 -36 l11 -27 13 35 c7 20
16 50 20 68 9 41 -5 41 -70 0z m39 -25 c-5 -19 -9 -20 -25 -10 -18 11 -18 12
4 23 27 15 28 14 21 -13z"/>
<path d="M325 2421 c-2 -5 6 -37 19 -71 14 -38 26 -58 31 -51 4 7 4 15 1 18
-10 10 25 43 46 43 10 0 18 4 18 8 0 12 -109 62 -115 53z m55 -41 c12 -7 12
-12 2 -22 -10 -10 -15 -10 -22 2 -19 29 -9 39 20 20z"/>
<path d="M1642 2367 l-44 -44 28 -22 c34 -26 68 -27 94 -1 27 27 25 44 -7 80
l-28 31 -43 -44z m68 -8 c21 -38 -37 -78 -68 -47 -10 10 -6 18 20 40 18 15 34
28 35 28 1 0 7 -9 13 -21z"/>
<path d="M686 2368 c-21 -30 -20 -50 6 -83 18 -23 27 -26 59 -22 51 7 103 -24
93 -55 -12 -40 -7 -96 13 -135 14 -28 33 -45 71 -63 51 -25 51 -25 52 -73 0
-42 -4 -52 -30 -74 -58 -48 -25 -143 50 -143 75 0 108 95 50 143 -26 22 -30
32 -30 76 0 30 4 51 11 51 6 0 27 7 46 17 65 31 101 119 80 196 -6 23 -3 30
24 46 22 13 42 18 66 14 26 -5 39 -1 58 17 62 58 -9 141 -85 100 -11 -6 -22
-25 -25 -43 -5 -23 -16 -39 -36 -51 -29 -17 -31 -17 -81 8 -65 32 -92 33 -154
1 -47 -24 -50 -25 -81 -8 -22 12 -33 26 -38 50 -7 37 -29 53 -74 53 -20 0 -35
-8 -45 -22z"/>
<path d="M232 2322 l-20 -28 36 -30 c57 -47 59 -47 81 -10 26 41 26 51 1 76
-30 30 -74 26 -98 -8z m84 -18 c11 -16 12 -24 1 -37 -11 -15 -15 -15 -45 9
-27 21 -31 29 -21 41 16 19 49 13 65 -13z"/>
<path d="M1727 2283 c-49 -36 -50 -40 -14 -88 9 -11 19 -17 23 -13 4 5 -1 17
-11 28 -15 16 -16 22 -5 35 11 14 14 13 27 -5 8 -11 19 -20 24 -20 6 0 3 10
-5 22 -11 16 -13 25 -5 35 9 10 15 8 31 -13 29 -37 34 -22 6 19 l-24 35 -47
-35z"/>
<path d="M180 2251 c0 -5 11 -16 25 -25 14 -9 36 -23 49 -32 45 -29 37 4 -8
35 -45 31 -66 38 -66 22z"/>
<path d="M478 2153 l-86 -88 38 -49 38 -50 -23 -45 c-12 -25 -29 -66 -36 -90
-14 -48 -28 -56 -102 -66 l-47 -6 0 -124 0 -123 63 -9 c50 -6 64 -12 72 -30 7
-18 18 -23 46 -23 l36 0 -15 54 -15 54 -58 6 -59 7 0 63 c0 63 0 64 31 70 17
3 42 6 55 6 26 0 31 9 59 100 9 30 30 79 47 107 l29 53 -32 45 -33 46 45 45
45 45 45 -34 44 -34 50 28 c41 24 51 35 58 65 4 21 6 38 5 40 -2 1 -27 -9 -56
-23 l-52 -25 -49 36 c-27 20 -50 36 -53 36 -2 0 -42 -39 -90 -87z"/>
<path d="M1378 2204 l-48 -36 -52 26 c-28 14 -53 25 -54 23 -1 -1 1 -19 5 -40
5 -32 13 -42 56 -66 l50 -28 44 34 45 34 43 -43 c24 -23 43 -46 43 -51 0 -5
-14 -26 -30 -47 l-30 -38 39 -76 c22 -43 45 -100 51 -127 13 -55 13 -55 83
-64 l47 -6 0 -63 c0 -63 0 -64 -31 -70 -17 -3 -44 -6 -59 -6 -24 0 -29 -5 -39
-44 -16 -63 -15 -66 22 -66 24 0 35 6 42 23 8 18 22 24 73 30 l62 9 0 123 0
124 -47 6 c-64 8 -93 21 -93 40 0 9 -15 49 -34 89 l-33 73 38 50 38 50 -87 86
c-48 48 -90 87 -92 87 -3 0 -26 -17 -52 -36z"/>
<path d="M140 2191 c-14 -28 -12 -61 4 -67 8 -3 28 5 45 17 38 28 51 18 29
-22 -20 -34 -7 -40 16 -7 20 28 20 52 1 68 -13 11 -21 9 -46 -9 -34 -25 -50
-20 -31 9 15 24 15 30 2 30 -5 0 -14 -9 -20 -19z"/>
<path d="M1823 2169 c-7 -7 -9 -26 -6 -47 5 -27 3 -34 -8 -30 -8 2 -18 14 -24
26 -13 29 -28 28 -19 0 10 -35 24 -48 49 -48 28 0 34 14 27 58 -4 26 -2 31 11
27 8 -4 18 -16 22 -28 6 -20 8 -20 12 -4 5 20 -22 57 -42 57 -6 0 -16 -5 -22
-11z"/>
<path d="M98 2093 c-8 -10 -19 -30 -25 -44 -11 -25 -9 -26 40 -45 28 -10 55
-20 59 -22 20 -9 5 26 -14 36 -22 10 -22 11 10 17 31 7 49 21 39 31 -2 2 -16
0 -30 -5 -22 -9 -25 -8 -20 6 4 9 -1 21 -12 29 -24 18 -29 18 -47 -3z m39 -28
c5 -17 -13 -36 -29 -30 -20 8 -11 47 10 43 8 -2 17 -7 19 -13z"/>
<path d="M1853 2058 c-33 -13 -50 -25 -47 -33 7 -16 114 24 114 43 0 15 -4 15
-67 -10z"/>
<path d="M1866 2004 c-55 -20 -58 -28 -8 -20 l43 6 -27 -45 c-14 -25 -24 -48
-22 -50 8 -9 117 28 112 37 -3 5 -11 7 -18 5 -6 -2 -22 -8 -35 -12 l-24 -7 26
45 c15 25 27 48 27 51 0 10 -33 5 -74 -10z"/>
<path d="M43 1955 l-10 -43 58 -15 57 -14 7 26 c3 14 8 34 11 44 3 9 1 17 -5
17 -5 0 -12 -14 -16 -31 -5 -21 -11 -29 -22 -25 -8 3 -16 6 -17 6 -2 0 -1 12
2 26 3 19 1 25 -7 20 -6 -4 -11 -14 -11 -22 0 -8 -7 -14 -16 -14 -13 0 -15 7
-11 30 10 47 -9 43 -20 -5z"/>
<path d="M585 1899 c15 -90 68 -149 135 -149 23 0 57 -17 121 -62 l89 -63 0
-307 0 -308 -137 0 -138 1 -37 34 c-21 20 -38 43 -38 53 0 25 -20 42 -50 42
-33 0 -50 -17 -50 -50 0 -31 17 -50 43 -50 11 0 39 -18 63 -40 l44 -40 180 0
180 0 0 345 0 344 -99 71 c-84 60 -101 76 -116 115 -20 54 -50 76 -114 86 -25
3 -54 10 -65 14 -17 7 -18 4 -11 -36z m-37 -806 c-2 -10 -10 -18 -18 -18 -8 0
-16 8 -18 18 -2 12 3 17 18 17 15 0 20 -5 18 -17z"/>
<path d="M1390 1930 c-8 -5 -31 -10 -50 -10 -63 0 -98 -32 -123 -111 -3 -9
-48 -47 -101 -84 l-96 -68 0 -349 0 -348 175 0 175 0 44 40 c24 22 52 40 63
40 26 0 43 19 43 50 0 33 -17 50 -50 50 -30 0 -50 -17 -50 -42 0 -10 -17 -33
-37 -53 l-38 -34 -137 -1 -138 0 0 308 0 307 89 63 c64 44 98 62 120 62 71 0
120 54 136 148 7 43 2 49 -25 32z m97 -844 c-4 -9 -11 -16 -17 -16 -17 0 -24
31 -9 41 18 11 34 -5 26 -25z"/>
<path d="M26 1882 c-2 -4 11 -16 30 -27 19 -10 34 -22 34 -26 0 -4 -18 -10
-40 -14 -25 -4 -40 -12 -40 -21 0 -18 1 -18 72 2 32 9 57 21 56 26 -5 15 -106
69 -112 60z"/>
<path d="M1864 1862 c14 -16 17 -30 12 -57 -4 -19 -3 -35 1 -34 15 1 97 55
100 65 2 6 -18 17 -44 23 -26 7 -57 15 -68 18 -20 6 -20 5 -1 -15z m65 -21
c11 -7 10 -11 -7 -20 -16 -9 -21 -7 -25 9 -5 21 8 26 32 11z"/>
<path d="M10 1745 c0 -12 13 -15 60 -15 33 0 60 4 60 9 0 14 -27 21 -76 21
-32 0 -44 -4 -44 -15z"/>
<path d="M1870 1725 c0 -19 5 -35 10 -35 6 0 10 9 10 20 0 17 7 20 50 20 38 0
50 4 50 15 0 12 -13 15 -60 15 l-60 0 0 -35z"/>
<path d="M625 1690 c15 -98 71 -160 144 -160 70 -1 71 -5 71 -214 l0 -186 -46
0 c-25 0 -55 5 -66 11 -26 14 -64 -2 -73 -30 -15 -47 47 -90 84 -57 13 12 37
16 89 16 l72 0 0 230 0 230 -35 22 c-21 14 -40 39 -50 64 -22 57 -46 76 -112
86 -31 5 -63 14 -71 21 -12 10 -13 5 -7 -33z m97 -612 c-16 -16 -37 4 -28 28
6 16 8 16 23 1 13 -13 14 -19 5 -29z"/>
<path d="M1365 1721 c-6 -6 -36 -14 -68 -19 -66 -10 -90 -29 -112 -86 -10 -25
-29 -50 -50 -64 l-35 -22 0 -230 0 -230 72 0 c52 0 76 -4 89 -16 37 -33 99 10
84 57 -9 28 -47 44 -73 30 -11 -6 -41 -11 -66 -11 l-46 0 0 186 c0 208 2 213
68 214 41 0 84 22 110 55 32 40 56 165 27 136z m-56 -637 c-6 -7 -17 -10 -25
-7 -17 6 -18 15 -2 31 17 17 43 -5 27 -24z"/>
<path d="M10 1690 c0 -5 17 -10 38 -10 l37 -1 -38 -32 c-20 -18 -37 -35 -37
-39 0 -5 27 -8 60 -8 33 0 60 4 60 10 0 6 -17 10 -37 10 l-37 0 39 40 39 40
-62 0 c-35 0 -62 -4 -62 -10z"/>
<path d="M1893 1675 c-45 -32 -21 -105 33 -105 43 0 64 18 64 53 0 18 -4 38
-8 44 -13 21 -65 26 -89 8z m75 -46 c2 -20 -2 -28 -19 -32 -29 -8 -59 9 -59
32 0 26 10 32 45 29 24 -2 31 -8 33 -29z"/>
<path d="M10 1561 c0 -6 21 -11 48 -13 43 -3 47 -5 47 -28 0 -23 -4 -25 -47
-28 -27 -2 -48 -7 -48 -13 0 -13 94 -11 108 3 15 15 15 61 0 76 -14 14 -108
16 -108 3z"/>
<path d="M1870 1560 c0 -5 5 -10 10 -10 14 0 13 -53 -2 -68 -6 -6 -9 -14 -6
-17 8 -8 118 36 118 47 0 5 -25 20 -55 34 -63 27 -65 28 -65 14z m74 -39 c3
-5 -1 -12 -10 -15 -22 -9 -24 -8 -24 9 0 16 25 21 34 6z"/>
<path d="M308 1372 c-27 -8 -48 -21 -48 -29 0 -16 13 -16 71 1 38 12 50 12 78
0 41 -17 69 -17 101 0 21 12 30 12 59 0 42 -17 69 -17 101 0 21 12 30 12 59 0
72 -30 86 -6 16 28 -41 20 -49 21 -78 9 -40 -17 -64 -17 -104 0 -27 11 -37 10
-71 -5 -36 -17 -42 -17 -70 -2 -37 19 -52 19 -114 -2z"/>
<path d="M1246 1369 c-52 -28 -35 -49 21 -26 33 13 42 13 63 1 32 -17 74 -18
108 0 23 12 31 12 52 0 32 -17 60 -17 101 0 28 12 40 12 78 0 58 -17 71 -17
71 -1 0 8 -25 22 -60 32 -57 17 -62 17 -99 1 -35 -17 -41 -17 -69 -2 -39 20
-55 20 -94 0 -29 -15 -34 -15 -65 0 -43 20 -59 20 -107 -5z"/>
<path d="M303 1303 c-24 -8 -43 -21 -43 -29 0 -17 3 -17 65 1 46 14 53 14 88
-2 33 -14 43 -15 70 -4 18 8 41 14 52 14 11 0 34 -6 52 -14 27 -11 37 -10 71
5 36 16 42 16 77 2 52 -22 70 -5 24 23 -40 25 -70 26 -109 6 -25 -13 -33 -13
-74 2 -43 16 -47 16 -81 0 -32 -15 -39 -16 -65 -2 -36 18 -72 18 -127 -2z"/>
<path d="M1254 1306 c-18 -8 -34 -19 -38 -24 -12 -20 13 -23 51 -7 35 15 41
15 76 -1 33 -15 43 -16 70 -5 18 8 41 14 52 14 11 0 34 -6 52 -14 27 -11 37
-10 70 4 35 16 42 16 88 2 62 -18 65 -18 65 -1 0 9 -22 22 -56 33 -52 16 -59
16 -102 1 -40 -15 -49 -15 -73 -2 -35 18 -53 18 -89 -1 -27 -14 -34 -14 -66 0
-44 18 -60 18 -100 1z"/>
<path d="M58 1292 c-4 -12 -16 -26 -29 -30 -15 -6 -18 -11 -11 -16 7 -4 12
-18 12 -32 0 -21 4 -24 20 -19 10 3 28 1 39 -4 16 -9 18 -8 14 10 -3 11 2 28
11 38 16 18 16 19 -7 25 -13 3 -28 16 -34 28 l-10 22 -5 -22z"/>
<path d="M1922 1286 c-7 -17 -20 -26 -34 -26 -21 0 -21 -1 -3 -13 12 -10 16
-22 13 -40 -4 -23 -3 -25 14 -16 10 6 28 7 38 4 16 -5 20 -2 20 17 0 13 5 29
12 36 9 9 8 12 -5 12 -9 0 -22 12 -30 26 l-13 25 -12 -25z"/>
<path d="M497 1243 c-32 -13 -45 -14 -77 -3 -59 19 -160 -3 -160 -36 0 -11 5
-14 16 -10 65 25 106 28 143 12 35 -16 40 -16 80 0 40 16 44 16 80 -1 37 -16
41 -16 76 1 32 15 42 16 69 5 44 -18 61 -18 61 -1 0 8 -19 22 -45 31 -40 15
-48 15 -86 1 -37 -14 -45 -14 -80 0 -35 14 -43 14 -77 1z"/>
<path d="M1275 1246 c-54 -20 -71 -34 -59 -46 9 -9 19 -8 42 4 39 20 55 20 94
0 28 -15 34 -15 69 1 36 17 40 17 80 1 40 -16 45 -16 80 0 38 16 78 13 144
-12 13 -5 16 -2 13 12 -2 12 -20 24 -58 35 -50 15 -58 15 -94 1 -35 -14 -43
-14 -80 0 -38 14 -46 14 -80 0 -35 -14 -43 -14 -80 0 -32 12 -48 13 -71 4z"/>
<path d="M1680 1001 c0 -6 5 -11 10 -11 6 0 10 -5 10 -11 0 -5 -6 -7 -12 -3
-9 5 -9 2 1 -9 20 -25 51 -22 50 6 -1 16 -2 18 -6 5 -6 -25 -30 -22 -29 3 1
12 -5 24 -11 26 -7 3 -13 0 -13 -6z"/>
<path d="M290 980 c0 -28 20 -68 38 -75 14 -5 14 -4 0 12 -23 27 -30 54 -17
69 9 11 8 14 -5 14 -9 0 -16 -8 -16 -20z"/>
<path d="M353 946 c2 -38 6 -52 14 -49 16 6 13 103 -4 103 -7 0 -11 -19 -10
-54z"/>
<path d="M416 974 c17 -16 24 -32 21 -45 -3 -10 -1 -19 4 -19 18 0 8 47 -14
68 -33 31 -42 27 -11 -4z"/>
<path d="M50 922 c0 -28 7 -45 25 -62 32 -30 31 -35 -5 -36 -41 -2 -46 -9 -26
-39 12 -18 25 -25 50 -25 25 0 35 -6 43 -23 10 -22 9 -23 -12 -19 -12 2 -33
-1 -45 -8 l-22 -12 28 -29 c23 -24 33 -28 63 -23 32 5 38 2 53 -25 13 -23 13
-29 2 -24 -7 3 -30 -5 -50 -18 l-37 -22 34 -28 c38 -32 47 -34 84 -17 24 11
29 8 78 -42 29 -29 41 -45 27 -36 -36 24 -50 20 -97 -26 l-43 -42 62 -23 62
-24 42 30 41 30 42 -30 c44 -33 51 -44 23 -35 -23 7 -32 0 -70 -55 l-31 -46
62 -11 62 -11 38 40 c38 39 38 39 69 23 17 -9 47 -22 67 -29 l36 -14 -41 0
c-41 -1 -42 -2 -64 -56 -13 -31 -20 -58 -17 -62 3 -3 31 -2 62 2 52 6 58 10
82 48 14 23 27 43 28 45 6 7 95 -11 95 -18 0 -5 -12 -10 -27 -12 -24 -3 -29
-10 -41 -61 -8 -32 -12 -61 -9 -64 4 -3 32 3 63 13 55 18 58 21 78 73 11 30
22 48 24 40 10 -30 36 -49 69 -49 27 0 37 6 52 31 l19 31 6 -29 c14 -61 40
-88 96 -101 29 -7 55 -11 57 -8 6 6 -18 99 -30 114 -5 6 -20 12 -33 12 -38 0
-28 17 14 24 62 10 67 8 89 -38 18 -37 27 -44 60 -49 45 -8 93 -9 93 -2 0 2
-11 29 -24 60 -24 53 -27 55 -63 55 -38 1 -38 1 27 29 l65 29 39 -39 c23 -24
45 -38 55 -35 9 2 35 8 59 11 23 4 42 10 42 13 0 4 -16 29 -36 55 -31 43 -39
48 -62 42 -22 -5 -18 0 21 30 l47 36 40 -32 39 -32 61 23 60 22 -32 38 c-40
46 -60 55 -89 39 -16 -8 -11 2 17 35 43 52 39 50 83 35 28 -10 36 -8 71 16 22
15 40 29 40 30 0 2 -17 13 -37 25 -30 17 -41 20 -56 11 -14 -10 -14 -5 5 24
20 32 27 36 54 31 25 -3 37 1 58 23 14 15 26 30 26 33 0 14 -61 19 -76 7 -13
-11 -13 -7 1 23 14 29 21 34 42 30 22 -4 73 29 73 49 0 13 -52 20 -65 9 -11
-9 -12 -7 -8 9 3 11 16 27 29 36 19 12 24 24 24 55 0 45 1 44 -35 28 -27 -12
-28 -14 -25 -72 l2 -39 -34 28 -33 28 -3 -38 c-2 -27 2 -43 17 -59 19 -21 19
-21 0 -56 -11 -19 -17 -26 -14 -14 3 14 -4 29 -24 48 l-28 27 -7 -23 c-10 -38
-6 -62 13 -87 19 -24 19 -25 -6 -63 -14 -21 -27 -38 -29 -38 -1 0 0 15 2 33 5
26 0 37 -24 60 l-30 28 -12 -50 c-11 -46 -10 -54 8 -85 l20 -34 -51 -48 c-28
-27 -41 -36 -29 -20 29 37 28 60 -4 114 l-26 44 -18 -30 c-51 -83 -52 -87 -31
-141 21 -56 22 -53 -49 -101 l-35 -24 23 25 c12 14 22 34 22 46 0 23 -19 84
-30 96 -11 13 -91 -92 -86 -112 3 -9 8 -32 11 -52 7 -35 6 -36 -46 -57 -58
-25 -73 -24 -34 2 20 13 25 24 25 59 0 23 -3 52 -6 64 -6 23 -6 22 -51 -10
-56 -40 -63 -53 -63 -116 0 -37 -4 -51 -14 -51 -7 0 -29 -3 -47 -6 -33 -5 -34
-5 -9 8 21 11 27 24 34 76 5 34 7 65 4 67 -2 3 -30 -9 -60 -25 -56 -31 -68
-48 -68 -102 0 -34 -3 -34 -39 -7 -32 24 -60 20 -90 -12 -18 -20 -19 -19 -26
28 -8 59 -16 68 -77 99 l-48 24 0 -57 c0 -66 5 -78 40 -93 21 -9 18 -10 -19
-5 -24 3 -48 8 -53 11 -4 3 -8 31 -8 62 0 58 0 58 -51 96 -28 21 -52 36 -53
34 -2 -2 -6 -29 -9 -61 -5 -49 -3 -61 14 -78 10 -10 24 -19 31 -19 6 0 9 -3 6
-6 -3 -3 -29 5 -58 17 l-52 22 7 56 c6 55 6 58 -36 110 l-42 53 -19 -62 c-18
-59 -18 -63 -2 -88 l18 -27 -40 29 c-21 16 -41 31 -43 32 -2 2 4 21 13 44 22
55 21 67 -15 129 l-32 55 -29 -58 c-28 -55 -28 -59 -13 -83 29 -43 9 -36 -30
11 l-37 45 21 30 c21 28 21 33 8 78 -8 26 -17 47 -21 46 -4 -1 -18 -16 -33
-33 -22 -27 -24 -35 -15 -56 17 -36 6 -29 -24 16 l-27 41 21 22 c18 19 21 30
14 66 l-7 43 -28 -23 c-21 -16 -28 -28 -24 -45 6 -32 1 -30 -19 7 -15 30 -15
32 6 54 18 19 21 31 16 60 -7 35 -7 35 -31 18 -13 -10 -26 -25 -28 -33 -3 -8
-5 8 -6 36 -1 43 -5 54 -26 68 -34 22 -35 21 -35 -22z m975 -742 c0 -29 -32
-41 -41 -16 -9 24 4 48 23 44 12 -2 18 -12 18 -28z"/>
<path d="M1665 929 c-4 -11 -5 -21 -3 -22 1 -1 13 -8 26 -15 12 -7 22 -8 22
-2 0 5 -10 14 -21 21 -16 8 -18 13 -9 19 8 5 9 10 2 14 -6 3 -14 -3 -17 -15z"/>
<path d="M630 893 c0 -48 13 -58 80 -58 67 0 80 10 80 58 0 20 -5 27 -20 27
-16 0 -20 -7 -20 -35 0 -34 -1 -35 -40 -35 -39 0 -40 1 -40 35 0 28 -4 35 -20
35 -15 0 -20 -7 -20 -27z"/>
<path d="M810 875 c0 -38 3 -45 20 -45 11 0 20 7 20 15 0 10 10 15 28 15 45 0
72 11 72 30 0 21 -27 30 -92 30 l-48 0 0 -45z m89 26 c19 -12 4 -31 -25 -31
-17 0 -24 5 -24 20 0 21 24 27 49 11z"/>
<path d="M985 906 c-18 -13 -18 -14 3 -25 11 -6 34 -11 51 -11 16 0 33 -4 36
-10 4 -6 -14 -10 -47 -11 -46 0 -50 -2 -28 -10 14 -6 44 -7 68 -4 61 9 54 35
-13 50 -43 10 -47 12 -27 19 13 4 34 5 48 2 14 -4 24 -2 24 4 0 15 -93 12
-115 -4z"/>
<path d="M1140 875 c0 -38 3 -45 20 -45 17 0 20 7 20 45 0 38 -3 45 -20 45
-17 0 -20 -7 -20 -45z"/>
<path d="M1200 875 c0 -33 4 -45 15 -45 10 0 15 10 15 30 l0 30 60 -30 c33
-16 62 -30 65 -30 3 0 5 20 5 45 0 33 -4 45 -15 45 -9 0 -15 -9 -15 -25 0 -14
-2 -25 -5 -25 -3 0 -28 11 -55 25 -27 14 -54 25 -60 25 -5 0 -10 -20 -10 -45z"/>
<path d="M1647 882 c-3 -4 2 -14 12 -21 11 -8 16 -21 14 -33 -5 -15 -8 -16
-21 -6 -13 11 -14 10 -10 -2 8 -24 38 -25 38 -1 0 12 5 21 10 21 6 0 10 8 10
17 0 9 -3 13 -7 10 -3 -4 -14 0 -24 9 -9 8 -19 11 -22 6z"/>
<path d="M333 864 c-3 -9 0 -20 7 -24 7 -4 10 -13 6 -19 -5 -7 3 -9 26 -4 42
8 45 10 28 26 -10 10 -11 9 -5 -2 6 -10 2 -12 -16 -6 -36 11 -47 25 -18 25 19
0 21 2 9 10 -21 14 -30 12 -37 -6z"/>
<path d="M1623 799 c9 -6 17 -22 17 -37 l-1 -27 -24 28 c-15 17 -25 22 -25 14
0 -19 36 -50 49 -42 25 15 5 76 -23 75 -6 0 -3 -5 7 -11z"/>
<path d="M713 787 c-94 -7 -123 -13 -123 -23 0 -17 88 -19 227 -3 53 6 106 8
117 5 12 -3 30 -22 39 -42 20 -40 22 -40 45 8 l17 33 90 -5 c295 -15 368 7 95
29 -159 13 -177 13 -203 -3 -26 -14 -31 -14 -50 -1 -24 17 -65 17 -254 2z"/>
<path d="M355 775 l-30 -14 45 5 c25 3 52 10 60 15 26 15 -42 10 -75 -6z"/>
<path d="M433 755 c0 -8 4 -15 9 -15 4 0 8 7 8 15 0 8 -4 15 -8 15 -5 0 -9 -7
-9 -15z"/>
<path d="M1554 728 c-4 -7 -4 -10 1 -6 4 4 16 3 26 -3 11 -5 19 -7 19 -5 0 3
-9 10 -19 16 -15 7 -22 7 -27 -2z"/>
<path d="M430 720 c-17 -11 -4 -41 21 -47 8 -3 7 0 -3 7 -25 15 -23 34 1 20
24 -12 41 -13 41 -1 0 5 -8 8 -17 7 -10 0 -17 5 -15 12 2 14 -7 15 -28 2z"/>
<path d="M614 705 c-12 -30 7 -35 141 -35 l134 0 15 -28 c37 -72 167 -66 191
8 6 19 16 20 145 20 101 0 139 3 142 13 13 34 -2 37 -168 37 l-164 0 0 -25 c0
-15 -10 -31 -25 -41 -35 -23 -73 -6 -81 36 l-6 30 -160 0 c-129 0 -160 -3
-164 -15z"/>
<path d="M1551 689 c-1 -21 28 -34 43 -19 7 7 3 10 -11 10 -12 0 -24 6 -26 13
-4 7 -6 6 -6 -4z"/>
<path d="M479 659 c-24 -19 -16 -26 11 -9 9 5 19 5 26 -1 7 -6 15 -6 17 -1 3
4 -2 13 -12 19 -13 8 -23 7 -42 -8z"/>
<path d="M1505 660 c-3 -11 -11 -18 -16 -15 -12 8 -11 1 3 -30 6 -14 15 -25
20 -25 5 0 5 8 0 18 -5 9 -6 26 -1 37 8 19 8 19 15 -2 3 -13 10 -23 14 -23 12
0 0 37 -15 50 -10 8 -15 6 -20 -10z"/>
<path d="M525 616 c-16 -12 -17 -16 -6 -30 7 -9 21 -15 30 -15 13 1 13 2 -1 6
-18 5 -25 23 -9 23 5 0 11 7 15 15 7 19 -4 19 -29 1z"/>
<path d="M566 611 c-4 -5 -2 -12 3 -15 5 -4 12 -2 15 3 4 5 2 12 -3 15 -5 4
-12 2 -15 -3z"/>
<path d="M1445 610 c-3 -5 -2 -10 3 -10 5 0 12 -9 15 -21 4 -14 10 -18 18 -13
10 6 10 9 1 12 -7 2 -12 10 -12 17 0 18 -17 28 -25 15z"/>
<path d="M1371 594 c0 -11 3 -14 6 -6 3 7 2 16 -1 19 -3 4 -6 -2 -5 -13z"/>
<path d="M743 583 c10 -10 -34 -54 -46 -46 -6 3 -7 1 -4 -4 7 -11 -14 -23 -40
-23 -13 0 -13 3 -3 15 7 8 8 15 2 15 -14 0 -33 -25 -25 -33 3 -4 15 -7 25 -7
11 0 16 -4 13 -10 -16 -26 15 -5 58 38 51 52 56 62 30 62 -9 0 -13 -3 -10 -7z"/>
<path d="M1421 580 c0 -8 4 -24 9 -35 l9 -20 0 20 c0 11 -4 27 -9 35 -9 13
-10 13 -9 0z"/>
<path d="M1381 555 c-1 -21 15 -52 23 -45 2 3 -2 19 -9 35 -10 23 -14 25 -14
10z"/>
<path d="M555 550 c-19 -8 -19 -9 3 -9 12 -1 22 4 22 9 0 6 -1 10 -2 9 -2 0
-12 -4 -23 -9z"/>
<path d="M1315 520 c9 -54 12 -58 28 -40 10 10 9 11 -2 5 -11 -6 -13 -1 -9 24
3 20 -1 36 -10 43 -13 11 -13 6 -7 -32z"/>
<path d="M855 540 c4 -6 -5 -30 -19 -55 -28 -47 -32 -65 -15 -65 5 0 8 3 5 8
-8 14 19 41 34 32 12 -7 12 -11 0 -27 -13 -16 -12 -16 8 1 27 24 28 36 2 36
-23 0 -24 6 -5 40 19 32 18 40 -1 40 -8 0 -12 -5 -9 -10z"/>
<path d="M732 490 c-15 -25 -15 -40 0 -40 6 0 8 3 5 7 -4 3 3 17 15 30 15 16
17 23 7 23 -8 0 -20 -9 -27 -20z"/>
<path d="M1251 488 c-16 -44 13 -65 40 -30 13 15 12 16 -3 4 -21 -16 -33 1
-13 18 19 16 19 30 0 30 -9 0 -19 -10 -24 -22z"/>
<path d="M925 490 c-3 -5 -2 -10 4 -10 5 0 13 5 16 10 3 6 2 10 -4 10 -5 0
-13 -4 -16 -10z"/>
<path d="M774 475 c-4 -8 -10 -12 -15 -9 -5 3 -6 -2 -3 -10 7 -18 20 -13 34
15 8 13 8 19 0 19 -6 0 -13 -7 -16 -15z"/>
<path d="M956 456 c-21 -44 -20 -56 2 -56 13 0 14 2 3 9 -11 7 -9 13 8 30 11
11 17 21 11 21 -5 0 -7 7 -4 15 12 29 -4 15 -20 -19z"/>
<path d="M1152 468 c-20 -20 -15 -58 7 -58 11 0 23 4 26 10 3 6 -1 7 -9 4 -21
-8 -33 23 -16 39 10 10 12 8 6 -7 -5 -16 -4 -17 9 -6 8 7 12 16 9 21 -7 12
-18 11 -32 -3z"/>
<path d="M916 454 c-9 -8 -16 -25 -15 -37 0 -21 1 -21 10 2 5 14 15 31 21 38
15 18 3 16 -16 -3z"/>
<path d="M1094 462 c-13 -10 -18 -65 -5 -57 6 3 11 18 11 32 0 21 2 24 15 13
9 -7 15 -8 15 -2 0 13 -24 22 -36 14z"/>
<path d="M1007 442 c-10 -10 -17 -24 -17 -30 0 -16 23 -15 38 0 9 9 12 8 12
-6 0 -9 5 -14 10 -11 6 4 8 10 5 15 -3 5 -1 19 5 30 9 17 8 20 -13 20 -13 0
-31 -8 -40 -18z m26 -14 c-13 -12 -25 -19 -29 -15 -10 10 16 37 34 37 13 0 12
-4 -5 -22z"/>
<path d="M1785 276 c-63 -63 -30 -169 57 -183 33 -5 41 -2 73 30 45 45 49 99
9 146 -22 26 -33 31 -70 31 -34 0 -51 -6 -69 -24z m129 -17 c29 -35 33 -67 11
-108 -16 -32 -33 -41 -79 -41 -61 0 -101 72 -72 128 32 61 98 71 140 21z"/>
<path d="M1810 200 c0 -40 4 -70 10 -70 6 0 10 14 10 30 0 17 4 30 10 30 5 0
16 -13 25 -30 9 -16 20 -30 25 -30 10 0 3 27 -13 48 -7 9 -6 17 1 24 17 17 15
55 -4 62 -9 3 -27 6 -40 6 -23 0 -24 -3 -24 -70z m63 36 c7 -18 -1 -26 -25
-26 -11 0 -18 7 -18 20 0 23 35 28 43 6z"/>
<path d="M927 73 c-4 -3 -7 -11 -7 -17 0 -6 5 -4 10 4 8 13 10 13 10 -2 0 -9
-4 -20 -10 -23 -17 -10 -11 -35 8 -35 13 0 14 2 3 9 -9 6 -10 11 -2 15 6 4 11
18 11 32 0 23 -10 31 -23 17z"/>
<path d="M964 66 c-8 -22 -1 -59 14 -64 8 -2 12 9 12 37 0 40 -15 55 -26 27z
m13 -43 c-3 -10 -5 -2 -5 17 0 19 2 27 5 18 2 -10 2 -26 0 -35z"/>
<path d="M1007 74 c-11 -11 -8 -62 3 -69 20 -12 39 14 31 42 -7 27 -22 39 -34
27z m23 -34 c0 -17 -4 -30 -10 -30 -5 0 -10 13 -10 30 0 17 5 30 10 30 6 0 10
-13 10 -30z"/>
<path d="M1057 66 c-3 -8 -2 -27 3 -43 8 -26 8 -25 9 15 1 43 -3 52 -12 28z"/>
</g>
</svg>
